# xmcd CD database file
#
# Track frame offsets:
#	225
#	16263
#	28905
#	43133
#	53532
#	68752
#	83281
#	95238
#	110442
#	124907
#	139258
#	154853
#	172135
#	181831
#
# Disc length: 2595 seconds
#
# Revision: 0
# Processed by: cddbd v1.5.2PL0 Copyright (c) Steve Scherf et al.
# Submitted via: CDex 1.50
#
DISCID=bb0a200e
DTITLE=verschiedne - Ich sthe auf Country Music #1
DYEAR=1900
DGENRE=Country
TTITLE0=Ich sthe auf Country Music
TTITLE1=5000 Meinlen von zuhaus'
TTITLE2=Chilli Lady
TTITLE3=Die schönste Frau von Texasa
TTITLE4=Das ist ein Wahnsinns Wunder
TTITLE5=Trucker auf dem Highway
TTITLE6=Die Freiheit der Berge
TTITLE7=Es hängt ein Pferdehalfter an der Wand
TTITLE8=Du bist Gefühl - Ich bin Verstand
TTITLE9=Tom Dooley
TTITLE10=Frühlingsregen
TTITLE11=Unter Freunden
TTITLE12=Die letzte Rose der Prärie
TTITLE13=Was soll'n wiir in Tennessee
EXTD=
EXTT0=
EXTT1=
EXTT2=
EXTT3=
EXTT4=
EXTT5=
EXTT6=
EXTT7=
EXTT8=
EXTT9=
EXTT10=
EXTT11=
EXTT12=
EXTT13=
PLAYORDER=
